<svg xmlns="http://www.w3.org/2000/svg" viewBox="0 0 512 512">
  <defs>
    <linearGradient id="bg" x1="0" y1="0" x2="1" y2="1">
      <stop offset="0%" stop-color="#6366f1"/>
      <stop offset="100%" stop-color="#8b5cf6"/>
    </linearGradient>
  </defs>
  <rect width="512" height="512" rx="96" fill="url(#bg)"/>
  <!-- Briefcase glyph — matches the top-nav brand mark. -->
  <g fill="#ffffff" transform="translate(112 124) scale(11.111)">
    <path d="M21 8h-3V6a2 2 0 0 0-2-2H8a2 2 0 0 0-2 2v2H3a2 2 0 0 0-2 2v10a2 2 0 0 0 2 2h18a2 2 0 0 0 2-2V10a2 2 0 0 0-2-2zM8 6h8v2H8V6zm13 14H3V10h2v2a1 1 0 0 0 2 0v-2h10v2a1 1 0 0 0 2 0v-2h2v10z"/>
  </g>
</svg>
